<?xml version="1.0" standalone="no"?>
<!DOCTYPE svg PUBLIC "-//W3C//DTD SVG 20010904//EN"
 "http://www.w3.org/TR/2001/REC-SVG-20010904/DTD/svg10.dtd">
<svg version="1.0" xmlns="http://www.w3.org/2000/svg"
 width="300.000000pt" height="300.000000pt" viewBox="0 0 300.000000 300.000000"
 preserveAspectRatio="xMidYMid meet">
<metadata>
Created by potrace 1.10, written by Peter Selinger 2001-2011
</metadata>
<g transform="translate(0.000000,300.000000) scale(0.100000,-0.100000)"
fill="#000000" stroke="none">
<path d="M888 2855 c-294 -151 -402 -528 -233 -810 41 -69 101 -134 162 -176
l43 -30 2 -752 3 -752 24 -53 c30 -67 105 -135 173 -158 102 -33 239 2 304 79
53 63 68 106 72 215 l4 102 288 0 288 0 3 -123 c4 -117 6 -126 34 -173 19 -30
49 -60 80 -79 42 -26 58 -30 119 -30 77 1 113 14 160 61 57 57 68 95 67 226
l-1 119 102 -2 c149 -2 138 -31 138 370 l0 326 -129 332 c-80 207 -138 344
-156 365 -35 42 -98 85 -144 98 -20 6 -169 10 -344 10 -170 0 -307 3 -305 8
66 130 88 207 88 312 0 205 -116 405 -292 503 -83 47 -122 55 -148 32 -19 -17
-20 -32 -20 -277 l0 -258 -117 0 -118 0 0 261 c0 246 -1 261 -19 275 -29 21
-54 17 -128 -21z m104 -27 c3 -7 6 -119 7 -248 3 -295 -5 -280 152 -280 163 0
153 -18 159 286 6 286 1 275 98 228 77 -38 181 -143 220 -225 79 -162 83 -319
11 -478 -33 -73 -34 -80 -15 -107 14 -18 32 -19 333 -24 316 -5 319 -5 367
-30 27 -14 62 -41 77 -60 18 -22 74 -154 149 -347 l120 -312 -2 -333 -3 -333
-87 -5 c-125 -7 -131 -15 -138 -168 -4 -101 -8 -122 -29 -156 -33 -53 -115
-91 -178 -82 -59 8 -108 39 -140 87 -23 35 -27 53 -32 160 -9 171 16 159 -326
159 l-273 0 -30 -25 c-28 -24 -30 -29 -34 -118 -3 -79 -8 -100 -32 -140 -66
-114 -209 -156 -327 -97 -40 21 -104 88 -122 128 -9 20 -13 225 -17 785 l-5
759 -40 35 c-182 160 -236 262 -236 453 0 155 47 273 151 378 86 86 209 147
222 110z"/>
<path d="M865 2752 c-44 -27 -133 -128 -161 -183 -72 -143 -72 -316 2 -461 25
-48 101 -131 192 -209 l42 -36 0 -752 c0 -835 -4 -791 68 -864 43 -45 121 -72
176 -61 56 10 121 57 153 111 l28 48 5 770 5 769 45 30 c152 102 230 247 230
426 0 137 -39 240 -130 344 -36 41 -101 86 -123 86 -8 0 -22 -9 -33 -21 -17
-19 -19 -43 -24 -248 l-5 -226 -179 -3 c-137 -2 -181 1 -188 10 -4 7 -8 110
-8 229 0 203 -1 217 -20 237 -25 27 -36 27 -75 4z m75 -512 c18 -12 3 -11 229
-10 117 1 190 5 198 12 10 8 13 66 13 254 0 150 4 244 10 244 5 0 39 -27 74
-61 229 -214 192 -571 -76 -736 l-58 -36 0 -491 c-1 -270 -1 -611 0 -758 1
-303 -3 -331 -61 -383 -82 -74 -190 -65 -256 22 l-28 36 -5 781 c-3 430 -9
787 -13 794 -5 7 -27 22 -49 33 -23 12 -65 45 -94 73 -194 195 -175 518 41
689 l50 40 5 -247 c4 -205 8 -248 20 -256z"/>
<path d="M1515 1935 c-54 -29 -92 -63 -105 -95 -11 -28 -11 -34 7 -58 l20 -27
381 -5 c209 -3 382 -7 385 -10 17 -19 177 -439 177 -464 0 -8 -7 -17 -16 -20
-9 -3 -219 -6 -468 -6 -543 0 -491 16 -491 -155 0 -157 -4 -154 179 -157 117
-3 141 -6 141 -18 0 -12 -24 -16 -140 -18 -184 -4 -180 -1 -180 -156 0 -174
-72 -156 615 -156 l577 0 21 23 c22 23 22 29 22 310 l0 286 -119 310 c-66 170
-130 324 -143 341 -13 18 -43 44 -68 58 l-45 27 -360 3 c-313 2 -364 0 -390
-13z m738 -36 c83 -23 97 -47 227 -384 l120 -310 0 -287 0 -288 -580 0 -580 0
0 115 0 115 155 0 c142 0 157 2 175 20 11 11 20 29 20 40 0 11 -9 29 -20 40
-18 18 -33 20 -175 20 l-155 0 0 115 0 115 475 0 c462 0 476 1 495 20 11 11
20 24 20 30 0 21 -183 496 -197 513 -15 16 -47 17 -405 17 l-388 0 0 23 c0 15
16 34 48 59 l47 36 340 1 c213 1 354 -3 378 -10z"/>
<path d="M1989 1067 c-55 -37 -79 -81 -79 -147 0 -63 22 -106 73 -144 25 -19
45 -21 169 -24 157 -4 182 2 228 54 61 70 62 163 2 227 -48 52 -70 57 -220 57
-128 0 -142 -2 -173 -23z m357 -59 c29 -32 34 -45 34 -87 0 -54 -22 -91 -70
-116 -41 -21 -250 -21 -291 0 -59 31 -86 115 -56 175 7 13 28 35 47 48 33 22
42 23 168 20 l134 -3 34 -37z"/>
<path d="M2038 1004 c-52 -28 -66 -87 -33 -138 26 -39 64 -48 180 -44 l107 3
30 35 c38 45 33 92 -12 133 -29 26 -34 27 -138 27 -75 -1 -115 -5 -134 -16z
m254 -41 c25 -23 23 -68 -4 -87 -17 -12 -48 -16 -125 -16 -90 0 -106 3 -123
20 -11 11 -20 29 -20 40 0 11 9 29 20 40 18 18 33 20 127 20 85 0 110 -3 125
-17z"/>
<path d="M1429 1691 l-29 -29 0 -162 0 -162 30 -29 29 -30 411 3 412 3 19 24
c23 28 24 20 -42 200 -64 172 -72 187 -110 200 -20 7 -148 11 -361 11 l-330 0
-29 -29z m787 -178 c34 -87 64 -165 68 -173 5 -13 -45 -15 -419 -15 l-425 0 0
175 0 175 357 -2 358 -2 61 -158z"/>
<path d="M2143 550 c-35 -14 -43 -42 -43 -145 0 -109 14 -152 61 -186 69 -49
141 -44 196 13 44 46 53 76 53 183 0 92 0 94 -31 119 -28 24 -38 26 -122 25
-51 0 -102 -4 -114 -9z m225 -146 c-3 -124 -12 -144 -76 -171 -43 -18 -91 -4
-127 38 -23 29 -25 38 -25 137 l0 107 116 0 116 0 -4 -111z"/>
<path d="M1879 2766 c-49 -24 -28 -106 27 -106 31 0 54 26 54 59 0 44 -41 67
-81 47z"/>
<path d="M2520 2767 c-17 -9 -27 -27 -37 -70 -21 -93 -62 -134 -152 -152 -43
-9 -59 -17 -70 -37 -13 -23 -13 -29 2 -52 10 -15 27 -26 40 -26 89 0 159 -58
177 -147 15 -72 24 -83 66 -83 38 0 48 14 59 81 3 20 16 52 28 70 25 38 97 79
138 79 38 0 61 26 57 64 -3 32 -7 35 -97 57 -58 14 -105 62 -121 119 -22 86
-25 93 -46 101 -12 4 -31 2 -44 -4z m52 -108 c24 -71 78 -125 150 -149 29 -9
52 -21 50 -26 -2 -5 -27 -17 -55 -26 -66 -21 -130 -89 -149 -155 -7 -26 -18
-48 -25 -50 -6 -2 -18 20 -28 52 -22 77 -82 137 -153 156 -49 12 -73 39 -34
39 9 0 40 11 69 24 61 29 105 83 122 152 7 26 17 44 23 42 7 -3 20 -29 30 -59z"/>
<path d="M2491 2539 c-17 -17 -31 -41 -31 -53 0 -29 56 -86 85 -86 25 0 85 60
85 85 0 25 -60 85 -85 85 -13 0 -37 -14 -54 -31z m82 -27 l27 -28 -29 -28 -29
-27 -26 26 c-14 14 -26 28 -26 30 0 6 44 53 51 54 3 1 17 -12 32 -27z"/>
<path d="M302 2697 c-12 -13 -22 -31 -22 -40 0 -23 36 -57 60 -57 26 0 60 34
60 60 0 25 -34 60 -58 60 -10 0 -28 -10 -40 -23z"/>
<path d="M2737 2062 c-26 -28 -21 -69 9 -89 24 -15 29 -15 53 -2 16 9 27 25
29 43 7 55 -56 87 -91 48z"/>
<path d="M595 1595 c-14 -13 -25 -31 -25 -40 0 -21 36 -55 60 -55 40 0 73 55
52 86 -7 11 -46 34 -57 34 -3 0 -17 -11 -30 -25z"/>
<path d="M417 1192 c-10 -10 -17 -31 -17 -46 0 -69 -69 -150 -137 -161 -62
-10 -88 -27 -91 -62 -4 -37 26 -63 71 -63 75 0 157 -88 157 -169 0 -32 27 -61
57 -61 29 0 51 29 59 78 13 82 71 141 148 149 54 7 91 42 80 77 -10 32 -19 38
-74 47 -90 14 -141 68 -155 162 -8 49 -25 67 -63 67 -10 0 -26 -8 -35 -18z
m63 -79 c0 -22 30 -75 59 -106 30 -33 73 -58 116 -67 44 -9 38 -33 -12 -43
-64 -12 -139 -84 -159 -153 -16 -55 -31 -76 -38 -52 -35 119 -84 178 -171 203
-53 16 -69 31 -42 40 6 2 31 9 55 15 73 19 122 81 159 200 4 12 7 12 19 -4 8
-11 14 -26 14 -33z"/>
<path d="M405 975 c-19 -20 -35 -44 -35 -54 0 -22 65 -91 86 -91 24 0 84 65
84 90 0 25 -60 90 -84 90 -8 0 -31 -16 -51 -35z m81 -84 l-29 -30 -28 30 -29
31 28 28 27 28 30 -29 29 -29 -28 -29z"/>
<path d="M417 322 c-34 -37 -11 -94 37 -94 15 0 35 6 43 15 9 8 16 28 16 43 0
49 -63 72 -96 36z"/>
<path d="M1690 320 c-23 -23 -24 -33 -9 -61 28 -54 108 -34 109 27 0 48 -64
70 -100 34z"/>
</g>
</svg>
