<svg width="114" height="91" viewBox="0 0 114 91" fill="none" xmlns="http://www.w3.org/2000/svg">
<g clip-path="url(#clip0_2_212)">
<path d="M51.4218 65.8569C53.1793 66.9114 54.058 68.4932 54.058 70.6022V76.4019C54.058 77.1049 53.7944 77.7493 53.2671 78.3352C52.7399 78.921 52.0662 79.2139 51.246 79.2139C50.4258 79.2139 49.7521 78.921 49.2249 78.3352C48.6976 77.7493 48.434 77.1049 48.434 76.4019V70.6022L40.3495 65.3297L37.0103 77.1049C36.6588 78.5109 35.78 79.2139 34.374 79.2139C34.1397 79.2139 33.9053 79.1553 33.671 79.0382C32.265 78.6867 31.562 77.8079 31.562 76.4019C31.562 76.1676 31.6206 75.9332 31.7378 75.6989L36.8345 56.3664L51.4218 65.8569ZM58.276 36.8582C58.276 36.8582 58.0417 37.0925 57.573 37.5612C57.1043 38.0298 56.167 38.2642 54.761 38.2642C53.355 38.2642 52.1833 37.7955 51.246 36.8582C50.3087 35.9208 49.84 34.7492 49.84 33.3432C49.84 32.0543 50.3087 30.912 51.246 29.916C52.1833 28.9201 53.355 28.4222 54.761 28.4222C55.6983 28.4222 56.5478 28.6565 57.3094 29.1252C58.071 29.5938 58.6568 30.209 59.0669 30.9705C59.477 31.7321 59.682 32.523 59.682 33.3432C59.682 34.7492 59.2133 35.9208 58.276 36.8582ZM84.4628 58.8269L94.6563 74.8202C95.0078 75.2888 95.1835 75.8161 95.1835 76.4019C95.1835 77.1049 94.8906 77.7493 94.3048 78.3352C93.7189 78.921 93.0745 79.2139 92.3715 79.2139H92.1958H59.682L62.3183 71.6567C62.7869 70.2507 63.8414 69.5477 65.4818 69.5477H69.1725L56.87 61.8147L38.592 50.5667C37.6547 49.9808 37.186 49.1607 37.186 48.1062C37.186 47.5203 37.3618 46.9931 37.7133 46.5244L39.8223 43.7124C40.5253 42.7751 41.5212 41.9842 42.81 41.3398C44.0988 40.6954 45.3291 40.3732 46.5008 40.3732C47.0866 40.3732 47.731 40.4317 48.434 40.5489L52.652 41.7792C53.4722 42.0135 54.2045 42.3357 54.8489 42.7458C55.4933 43.1559 56.1084 43.6245 56.6943 44.1518C57.2801 44.679 57.7488 45.3235 58.1003 46.085C58.4518 46.8466 58.7447 47.6375 58.979 48.4577L60.7365 57.7724L74.7965 66.3842L79.7175 58.8269C79.9518 58.4754 80.3033 58.1825 80.772 57.9482C81.2407 57.831 81.6508 57.7138 82.0023 57.5967C82.3538 57.5967 82.6467 57.6552 82.881 57.7724C83.584 57.8896 84.1113 58.2411 84.4628 58.8269ZM44.0403 47.4032L54.2338 53.7302L53.355 49.5122C53.1207 48.3405 52.4763 47.6375 51.4218 47.4032L51.246 47.2274H51.0703L47.028 45.9972C46.9108 45.9972 46.7351 45.9972 46.5008 45.9972C45.5634 45.9972 44.8018 46.3487 44.216 47.0517L44.0403 47.4032ZM76.7298 73.5899H87.099L82.0023 65.5054L77.257 72.7112L76.7298 73.5899ZM111.704 77.4564C112.641 78.8624 113.11 80.3856 113.11 82.0259C113.11 83.4319 112.759 84.75 112.056 85.9803C111.353 87.2105 110.269 88.265 108.804 89.1438C107.34 90.0225 105.904 90.4619 104.498 90.4619H9.24175C7.83575 90.4619 6.40046 90.0225 4.93588 89.1438C3.4713 88.265 2.3875 87.2105 1.6845 85.9803C0.981505 84.75 0.630005 83.4319 0.630005 82.0259C0.630005 80.3856 1.09867 78.8624 2.036 77.4564L49.6643 4.16866C51.1874 1.70816 53.5893 0.477913 56.87 0.477913C60.1507 0.477913 62.5526 1.70816 64.0758 4.16866L111.704 77.4564ZM107.135 83.2562C107.369 82.9047 107.486 82.4946 107.486 82.0259C107.486 81.5572 107.31 81.0886 106.959 80.6199L59.5063 7.15641C58.8033 6.33624 57.9245 5.92616 56.87 5.92616C55.8155 5.92616 54.9368 6.33624 54.2338 7.15641L6.78125 80.6199C6.42975 81.0886 6.254 81.5572 6.254 82.0259C6.254 82.4946 6.37117 82.9047 6.6055 83.2562C7.19134 84.3107 8.07009 84.8379 9.24175 84.8379H104.498C105.67 84.8379 106.549 84.3107 107.135 83.2562Z" fill="white" fill-opacity="0.4"/>
</g>
<defs>
<clipPath id="clip0_2_212">
<rect width="112.48" height="90" fill="white" transform="matrix(1 0 0 -1 0.630005 90.47)"/>
</clipPath>
</defs>
</svg>
