<?xml version="1.0" encoding="utf-8"?>
<svg viewBox="47.1289 20.1602 100.6581 125.6508" width="100.658px" height="125.651px" xmlns="http://www.w3.org/2000/svg">
  <defs>
    <filter id="filter0_d_2119_3662" x="0" y="-21" width="194.754" height="218" filterUnits="userSpaceOnUse" color-interpolation-filters="sRGB">
      <feFlood flood-opacity="0" result="BackgroundImageFix"/>
      <feColorMatrix in="SourceAlpha" type="matrix" values="0 0 0 0 0 0 0 0 0 0 0 0 0 0 0 0 0 0 127 0" result="hardAlpha"/>
      <feOffset dy="4"/>
      <feGaussianBlur stdDeviation="12.5"/>
      <feComposite in2="hardAlpha" operator="out"/>
      <feColorMatrix type="matrix" values="0 0 0 0 0 0 0 0 0 0 0 0 0 0 0 0 0 0 0.25 0"/>
      <feBlend mode="normal" in2="BackgroundImageFix" result="effect1_dropShadow_2119_3662"/>
      <feBlend mode="normal" in="SourceGraphic" in2="effect1_dropShadow_2119_3662" result="shape"/>
    </filter>
  </defs>
  <g filter="url(#filter0_d_2119_3662)" style="" transform="matrix(0.6896679997444153, 0, 0, 0.7469539046287537, 30.32893753051758, 20.16017723083496)">
    <path d="M169.755 0H25V168H169.755V0Z" fill="white"/>
  </g>
  <path d="M97.4029 21.5962L78.0586 40.7489V101.118H97.6049V21.7961L97.4029 21.5962Z" fill="#F06C38" transform="matrix(1, 0, 0, 1, 7.105427357601002e-15, 0)"/>
  <path d="M147.6 140.919H125.84V145.811H147.6V140.919Z" fill="#F06C38" transform="matrix(1, 0, 0, 1, 7.105427357601002e-15, 0)"/>
  <path d="M115.642 140.919H47.1289V145.811H115.642V140.919Z" fill="#F06C38" transform="matrix(1, 0, 0, 1, 7.105427357601002e-15, 0)"/>
  <path d="M66.4722 52.2461L47.1367 71.4075V101.119H66.7709V52.5416L66.4722 52.2461Z" fill="#F06C38" transform="matrix(1, 0, 0, 1, 7.105427357601002e-15, 0)"/>
  <path d="M128.448 52.2461L116.51 64.0819L116.536 101.119H128.607V52.4112L128.448 52.2461Z" fill="#F06C38" transform="matrix(1, 0, 0, 1, 7.105427357601002e-15, 0)"/>
  <path d="M128.451 52.2544L147.787 71.4158V101.127H128.451V52.2544Z" fill="#211D22" transform="matrix(1, 0, 0, 1, 7.105427357601002e-15, 0)"/>
  <path d="M66.4707 52.2461L78.1809 63.8559V101.119H66.4707V52.2461Z" fill="#211D22" transform="matrix(1, 0, 0, 1, 7.105427357601002e-15, 0)"/>
  <path d="M97.4043 21.5962L116.749 40.7489V101.118H97.4043V21.5962Z" fill="#211D22" transform="matrix(1, 0, 0, 1, 7.105427357601002e-15, 0)"/>
  <path d="M68.7573 129.386V113.605C68.7573 112.937 68.4888 112.296 68.0111 111.823C67.5333 111.351 66.8853 111.085 66.2096 111.085H57.7059V131.941H66.2009C66.8789 131.941 67.5291 131.675 68.0085 131.201C68.4879 130.726 68.7573 130.083 68.7573 129.413M71.7617 106.106C72.7511 106.106 73.7308 106.299 74.6448 106.674C75.5588 107.048 76.3891 107.598 77.0883 108.29C77.7875 108.983 78.3419 109.805 78.7197 110.709C79.0976 111.614 79.2915 112.583 79.2903 113.562V128.483C79.2903 130.459 78.4974 132.354 77.0858 133.752C75.6741 135.15 73.7592 135.936 71.7617 135.939H47.1641V106.106H71.7617Z" fill="#211D22" transform="matrix(1, 0, 0, 1, 7.105427357601002e-15, 0)"/>
  <path d="M134.539 111.085H126.026V131.941H134.539C134.871 131.946 135.201 131.885 135.509 131.763C135.817 131.641 136.098 131.459 136.335 131.229C136.572 130.999 136.76 130.724 136.889 130.421C137.018 130.118 137.085 129.793 137.086 129.465V113.597C137.086 113.266 137.02 112.939 136.892 112.634C136.764 112.328 136.576 112.051 136.34 111.818C136.103 111.584 135.822 111.4 135.513 111.274C135.204 111.148 134.873 111.084 134.539 111.085ZM140.143 106.106C141.133 106.106 142.113 106.299 143.027 106.674C143.941 107.048 144.771 107.598 145.47 108.29C146.169 108.983 146.724 109.805 147.102 110.709C147.479 111.614 147.673 112.583 147.672 113.562V128.483C147.67 130.461 146.874 132.357 145.459 133.755C144.044 135.153 142.126 135.939 140.126 135.939H126.026V145.811H115.484V106.106H140.143Z" fill="#211D22" transform="matrix(1, 0, 0, 1, 7.105427357601002e-15, 0)"/>
  <path d="M113.048 113.536V118.02H102.507V113.597C102.507 113.267 102.441 112.94 102.313 112.636C102.186 112.331 101.999 112.054 101.763 111.821C101.527 111.588 101.247 111.403 100.939 111.276C100.631 111.15 100.301 111.085 99.9678 111.085H94.7936C94.4594 111.084 94.1283 111.148 93.8193 111.274C93.5103 111.4 93.2293 111.584 92.9926 111.818C92.756 112.051 92.5682 112.328 92.44 112.634C92.3119 112.939 92.2459 113.266 92.2459 113.597V129.386C92.2459 129.718 92.3121 130.047 92.4407 130.353C92.5693 130.659 92.7577 130.937 92.9952 131.172C93.2327 131.406 93.5146 131.591 93.8247 131.717C94.1348 131.843 94.467 131.908 94.8023 131.907H99.9415C100.277 131.908 100.609 131.843 100.919 131.717C101.229 131.591 101.511 131.406 101.749 131.172C101.986 130.937 102.175 130.659 102.303 130.353C102.432 130.047 102.498 129.718 102.498 129.386V124.555H113.04V128.457C113.037 130.433 112.242 132.327 110.829 133.723C109.416 135.12 107.5 135.904 105.502 135.904H89.2591C87.2592 135.904 85.3412 135.119 83.9262 133.721C82.5113 132.323 81.7152 130.426 81.7129 128.448V113.562C81.7117 112.583 81.9056 111.614 82.2835 110.709C82.6613 109.805 83.2157 108.983 83.9149 108.29C84.6141 107.598 85.4444 107.048 86.3584 106.674C87.2724 106.299 88.2521 106.106 89.2415 106.106H105.722C106.7 106.107 107.669 106.301 108.57 106.677C109.472 107.053 110.288 107.602 110.972 108.294C111.656 108.986 112.194 109.806 112.553 110.706C112.913 111.606 113.087 112.568 113.066 113.536" fill="#211D22" transform="matrix(1, 0, 0, 1, 7.105427357601002e-15, 0)"/>
</svg>