<?xml version="1.0" encoding="UTF-8" standalone="no"?><!DOCTYPE svg PUBLIC "-//W3C//DTD SVG 1.1//EN" "http://www.w3.org/Graphics/SVG/1.1/DTD/svg11.dtd"><svg width="100%" height="100%" viewBox="0 0 369 87" version="1.1" xmlns="http://www.w3.org/2000/svg" xmlns:xlink="http://www.w3.org/1999/xlink" xml:space="preserve" xmlns:serif="http://www.serif.com/" style="fill-rule:evenodd;clip-rule:evenodd;stroke-linejoin:round;stroke-miterlimit:2;"><g id="Layer-1" serif:id="Layer 1"><path d="M212.691,35.676l-1.26,2.795c-5.401,-0.762 -10.442,-3.219 -13.953,-5.59l0,5.421l-13.142,0l0,-36.081l14.223,0c7.381,0 15.573,2.287 15.573,15.754c0,7.114 -4.771,13.297 -10.713,14.398c0.63,0.677 5.852,3.472 9.272,3.303Zm-13.232,-5.421c7.201,-0.847 11.072,-6.013 11.072,-12.704c0,-8.978 -4.771,-12.535 -13.053,-11.942l-0.089,23.291c0.81,0.762 0.81,0.593 2.07,1.355Zm-22.055,-28.034l0,36.081l-12.692,0l0,-36.081l12.692,0Zm-47.619,36.081l-3.781,0.084l18.814,-38.028l16.923,37.944l-14.583,0l-1.89,-3.896l-13.323,0l-2.16,3.896Zm9.632,-19.226l-6.032,12.196l10.893,0l-4.861,-12.196Zm135.387,19.31l-3.781,0.085l18.814,-38.028l16.923,37.943l-14.582,0l-1.891,-3.896l-13.323,0l-2.16,3.896Zm9.632,-19.226l-6.031,12.196l10.892,0l-4.861,-12.196Zm-163.743,19.142l-13.143,0l0,-36.081l23.045,0l1.98,3.388l-11.882,0l0,6.267l10.622,0l1.89,3.388l-12.512,0l0,23.038Zm238.638,0l-24.935,0l0,-36.081l23.945,0l1.35,3.388l-12.153,0l0,6.267l12.153,0l1.35,3.388l-13.503,0l0,19.65l13.503,0l-1.71,3.388Zm-48.88,-32.693l-8.012,0l0,-3.388l29.256,0l0,3.388l-8.191,0l0,32.693l-13.053,0l0,-32.693Zm-77.506,32.693l-3.42,0l9.272,-37.351l11.882,21.004l10.802,-21.004l9.002,37.351l-12.873,0l-3.6,-15.5l-7.292,14.653l-9.542,-14.822l-4.231,15.669Z" style="fill:#2a2a2a;"/><path d="M364.739,0.672c0.6,0 1.175,0.149 1.725,0.45c0.552,0.299 0.985,0.73 1.3,1.289c0.315,0.561 0.472,1.147 0.472,1.758c0,0.609 -0.154,1.191 -0.463,1.743c-0.31,0.551 -0.74,0.983 -1.293,1.292c-0.552,0.308 -1.133,0.463 -1.741,0.463c-0.61,0 -1.189,-0.155 -1.743,-0.463c-0.551,-0.309 -0.983,-0.741 -1.291,-1.292c-0.309,-0.552 -0.463,-1.134 -0.463,-1.743c0,-0.611 0.157,-1.197 0.472,-1.758c0.315,-0.559 0.748,-0.99 1.298,-1.289c0.552,-0.301 1.127,-0.45 1.727,-0.45Zm0.004,0.686c-0.481,0 -0.942,0.119 -1.383,0.36c-0.442,0.24 -0.789,0.586 -1.043,1.036c-0.255,0.45 -0.382,0.923 -0.382,1.415c0,0.491 0.125,0.958 0.373,1.403c0.247,0.444 0.593,0.791 1.037,1.041c0.445,0.249 0.911,0.374 1.398,0.374c0.49,0 0.956,-0.125 1.4,-0.374c0.443,-0.25 0.789,-0.597 1.038,-1.041c0.249,-0.445 0.374,-0.912 0.374,-1.403c0,-0.492 -0.126,-0.965 -0.38,-1.415c-0.254,-0.45 -0.603,-0.796 -1.046,-1.036c-0.442,-0.241 -0.906,-0.36 -1.386,-0.36Zm-1.585,4.683l0,-3.711l0.755,0c0.706,0 1.102,0.003 1.186,0.009c0.249,0.021 0.444,0.071 0.583,0.148c0.138,0.078 0.254,0.197 0.346,0.356c0.093,0.16 0.14,0.338 0.14,0.533c0,0.266 -0.087,0.495 -0.263,0.685c-0.175,0.192 -0.421,0.309 -0.738,0.356c0.113,0.042 0.2,0.089 0.261,0.139c0.061,0.05 0.145,0.145 0.251,0.285c0.028,0.036 0.118,0.187 0.274,0.452l0.438,0.748l-0.93,0l-0.312,-0.602c-0.209,-0.405 -0.384,-0.661 -0.521,-0.765c-0.135,-0.104 -0.31,-0.157 -0.52,-0.157l-0.195,0l0,1.524l-0.755,0Zm0.755,-2.109l0.305,0c0.435,0 0.705,-0.017 0.811,-0.05c0.104,-0.034 0.187,-0.092 0.247,-0.176c0.063,-0.084 0.092,-0.179 0.092,-0.285c0,-0.104 -0.029,-0.196 -0.088,-0.276c-0.06,-0.081 -0.144,-0.139 -0.254,-0.174c-0.11,-0.035 -0.379,-0.052 -0.808,-0.052l-0.305,0l0,1.013Z" style="fill:#2a2a2a;"/><path d="M108.475,55.342l0,-8.597l1.784,0l2.111,6.085l0.425,1.277c0.115,-0.36 0.273,-0.819 0.477,-1.377l2.139,-5.985l1.591,0l0,8.597l-1.14,0l0,-7.195l-2.597,7.195l-1.063,0l-2.588,-7.317l0,7.317l-1.139,0Zm10.766,0l0,-5.408l-0.965,0l0,-0.822l0.965,0l0,-0.663c0,-0.366 0.041,-0.678 0.117,-0.937c0.077,-0.26 0.258,-0.477 0.54,-0.654c0.283,-0.175 0.66,-0.26 1.133,-0.26c0.312,0 0.654,0.034 1.029,0.107l-0.168,0.923c-0.226,-0.043 -0.441,-0.065 -0.645,-0.065c-0.34,0 -0.574,0.071 -0.711,0.208c-0.133,0.141 -0.2,0.394 -0.2,0.767l0,0.574l1.261,0l0,0.822l-1.261,0l0,5.408l-1.095,0Zm3.223,0.513l1.067,0.153c0.089,0.66 0.584,0.989 1.489,0.989c0.476,0 0.86,-0.094 1.149,-0.281c0.289,-0.189 0.473,-0.424 0.549,-0.705c0.076,-0.281 0.115,-0.776 0.115,-1.485c-0.48,0.544 -1.077,0.816 -1.791,0.816c-0.857,0 -1.537,-0.297 -2.041,-0.89c-0.505,-0.592 -0.759,-1.344 -0.759,-2.26c0,-1.018 0.263,-1.809 0.79,-2.374c0.527,-0.562 1.197,-0.843 2.013,-0.843c0.768,0 1.397,0.296 1.889,0.889l0,-0.752l1.013,0l0,5.383c0,0.7 -0.057,1.274 -0.178,1.729c-0.12,0.453 -0.413,0.841 -0.883,1.161c-0.469,0.324 -1.092,0.486 -1.863,0.486c-0.857,0 -1.502,-0.183 -1.934,-0.55c-0.435,-0.363 -0.644,-0.852 -0.625,-1.466Zm0.908,-3.74c0,1.568 0.59,2.353 1.771,2.353c0.578,0 1.02,-0.211 1.324,-0.63c0.305,-0.421 0.457,-0.983 0.457,-1.686c0,-0.672 -0.155,-1.225 -0.473,-1.656c-0.314,-0.433 -0.755,-0.651 -1.326,-0.651c-0.572,0 -1.01,0.221 -1.305,0.657c-0.299,0.437 -0.448,0.975 -0.448,1.613Zm6.76,3.227l0,-1.204l1.248,0l0,1.204l-1.248,0Zm9.845,0l0,-7.58l-2.946,0l0,-1.017l7.083,0l0,1.017l-2.956,0l0,7.58l-1.181,0Zm5.42,0l0,-8.597l1.098,0l0,3.082c0.512,-0.568 1.156,-0.852 1.934,-0.852c0.692,0 1.238,0.165 1.638,0.501c0.4,0.333 0.6,0.971 0.6,1.918l0,3.948l-1.098,0l0,-3.948c0,-1.008 -0.454,-1.512 -1.362,-1.512c-1.14,0 -1.712,0.685 -1.712,2.053l0,3.407l-1.098,0Zm11.589,-2.005l1.13,0.135c-0.375,1.338 -1.324,2.007 -2.845,2.007c-0.581,0 -1.095,-0.107 -1.546,-0.324c-0.448,-0.217 -0.816,-0.562 -1.105,-1.042c-0.289,-0.479 -0.432,-1.09 -0.432,-1.833c0,-0.635 0.112,-1.2 0.334,-1.692c0.222,-0.492 0.562,-0.883 1.016,-1.176c0.454,-0.294 1.013,-0.437 1.673,-0.437c0.695,0 1.264,0.162 1.714,0.489c0.448,0.327 0.762,0.727 0.947,1.197c0.184,0.474 0.279,1.085 0.279,1.833l-4.829,0c0.041,0.657 0.235,1.177 0.581,1.555c0.346,0.379 0.806,0.568 1.378,0.568c0.819,0 1.387,-0.427 1.705,-1.28Zm-3.604,-1.704l3.613,0c-0.047,-0.599 -0.238,-1.045 -0.565,-1.345c-0.33,-0.296 -0.73,-0.446 -1.206,-0.446c-0.518,0 -0.946,0.165 -1.283,0.495c-0.34,0.327 -0.524,0.761 -0.559,1.296Zm14.608,1.427l1.079,0.134c-0.114,0.709 -0.413,1.268 -0.895,1.674c-0.483,0.409 -1.079,0.611 -1.797,0.611c-0.927,0 -1.648,-0.284 -2.169,-0.858c-0.517,-0.572 -0.774,-1.363 -0.774,-2.371c0,-1.134 0.279,-1.965 0.844,-2.49c0.562,-0.526 1.264,-0.785 2.105,-0.785c1.457,0 2.321,0.654 2.584,1.967l-1.07,0.162c-0.203,-0.843 -0.695,-1.262 -1.472,-1.262c-1.245,0 -1.867,0.792 -1.867,2.38c0,1.595 0.603,2.395 1.806,2.395c0.934,0 1.476,-0.519 1.626,-1.557Zm1.823,-0.834c0,-1.164 0.311,-1.998 0.93,-2.5c0.616,-0.501 1.32,-0.751 2.108,-0.751c0.924,0 1.66,0.287 2.206,0.864c0.546,0.578 0.823,1.345 0.823,2.304c0,1.142 -0.292,1.983 -0.877,2.523c-0.581,0.544 -1.298,0.813 -2.152,0.813c-1.054,0 -1.826,-0.318 -2.308,-0.953c-0.486,-0.636 -0.73,-1.403 -0.73,-2.3Zm1.13,0c0,0.732 0.165,1.313 0.495,1.744c0.33,0.431 0.803,0.647 1.413,0.647c0.638,0 1.114,-0.229 1.429,-0.687c0.311,-0.458 0.469,-1.039 0.469,-1.738c0,-0.626 -0.152,-1.176 -0.457,-1.644c-0.304,-0.467 -0.784,-0.703 -1.441,-0.703c-0.642,0 -1.121,0.227 -1.435,0.676c-0.314,0.452 -0.473,1.02 -0.473,1.705Zm6.436,3.116l0,-6.23l0.981,0l0,0.877c0.451,-0.678 1.105,-1.014 1.965,-1.014c0.949,0 1.559,0.363 1.826,1.091c0.511,-0.728 1.177,-1.091 2,-1.091c1.333,0 2,0.696 2,2.092l0,4.275l-1.092,0l0,-3.926c0,-1.021 -0.385,-1.531 -1.153,-1.531c-1.057,0 -1.584,0.614 -1.584,1.839l0,3.618l-1.095,0l0,-4.045c0,-0.941 -0.384,-1.412 -1.15,-1.412c-0.504,0 -0.898,0.162 -1.177,0.486c-0.283,0.321 -0.423,0.901 -0.423,1.738l0,3.233l-1.098,0Zm10.608,2.386l0,-8.616l1,0l0,0.81c0.473,-0.633 1.095,-0.947 1.876,-0.947c0.908,0 1.59,0.308 2.051,0.926c0.46,0.62 0.692,1.38 0.692,2.282c0,1.096 -0.286,1.921 -0.857,2.471c-0.575,0.55 -1.229,0.825 -1.965,0.825c-0.702,0 -1.267,-0.26 -1.699,-0.782l0,3.031l-1.098,0Zm0.99,-5.466c0,0.706 0.149,1.274 0.451,1.705c0.298,0.434 0.727,0.65 1.286,0.65c0.584,0 1.025,-0.232 1.324,-0.693c0.298,-0.458 0.447,-1.045 0.447,-1.751c0,-0.696 -0.149,-1.264 -0.45,-1.707c-0.299,-0.443 -0.724,-0.666 -1.277,-0.666c-0.562,0 -1,0.244 -1.311,0.727c-0.314,0.482 -0.47,1.06 -0.47,1.735Zm6.144,3.08l0,-8.597l1.098,0l0,8.597l-1.098,0Zm7.439,-2.005l1.131,0.135c-0.375,1.338 -1.324,2.007 -2.845,2.007c-0.581,0 -1.095,-0.107 -1.546,-0.324c-0.448,-0.217 -0.816,-0.562 -1.105,-1.042c-0.289,-0.479 -0.432,-1.09 -0.432,-1.833c0,-0.635 0.111,-1.2 0.333,-1.692c0.223,-0.492 0.563,-0.883 1.017,-1.176c0.453,-0.294 1.012,-0.437 1.673,-0.437c0.695,0 1.263,0.162 1.714,0.489c0.448,0.327 0.762,0.727 0.946,1.197c0.184,0.474 0.279,1.085 0.279,1.833l-4.829,0c0.042,0.657 0.236,1.177 0.581,1.555c0.347,0.379 0.807,0.568 1.379,0.568c0.818,0 1.387,-0.427 1.704,-1.28Zm-3.603,-1.704l3.613,0c-0.048,-0.599 -0.238,-1.045 -0.565,-1.345c-0.331,-0.296 -0.73,-0.446 -1.207,-0.446c-0.517,0 -0.946,0.165 -1.282,0.495c-0.34,0.327 -0.524,0.761 -0.559,1.296Zm8.725,2.765l0.159,0.931c-0.312,0.061 -0.588,0.092 -0.829,0.092c-0.346,0 -0.632,-0.049 -0.857,-0.147c-0.226,-0.097 -0.394,-0.247 -0.505,-0.449c-0.108,-0.201 -0.165,-0.638 -0.165,-1.31l0,-3.581l-0.803,0l0,-0.822l0.803,0l0,-1.539l1.092,-0.636l0,2.175l1.105,0l0,0.822l-1.105,0l0,3.645c0,0.318 0.038,0.54 0.108,0.669c0.073,0.125 0.241,0.189 0.511,0.189c0.124,0 0.286,-0.012 0.486,-0.039Zm5.718,-1.061l1.131,0.135c-0.375,1.338 -1.324,2.007 -2.845,2.007c-0.581,0 -1.095,-0.107 -1.546,-0.324c-0.448,-0.217 -0.816,-0.562 -1.105,-1.042c-0.289,-0.479 -0.432,-1.09 -0.432,-1.833c0,-0.635 0.111,-1.2 0.334,-1.692c0.222,-0.492 0.562,-0.883 1.016,-1.176c0.453,-0.294 1.012,-0.437 1.673,-0.437c0.695,0 1.263,0.162 1.714,0.489c0.448,0.327 0.762,0.727 0.946,1.197c0.184,0.474 0.28,1.085 0.28,1.833l-4.829,0c0.041,0.657 0.235,1.177 0.581,1.555c0.346,0.379 0.806,0.568 1.378,0.568c0.819,0 1.387,-0.427 1.704,-1.28Zm-3.603,-1.704l3.613,0c-0.048,-0.599 -0.238,-1.045 -0.565,-1.345c-0.33,-0.296 -0.73,-0.446 -1.206,-0.446c-0.518,0 -0.947,0.165 -1.283,0.495c-0.34,0.327 -0.524,0.761 -0.559,1.296Zm10.372,3.709l0,-6.23l0.991,0l0,0.944c0.412,-0.721 0.879,-1.081 1.4,-1.081c0.368,0 0.743,0.113 1.124,0.339l-0.375,0.981c-0.267,-0.153 -0.537,-0.229 -0.807,-0.229c-0.825,0 -1.234,0.672 -1.234,2.013l0,3.263l-1.099,0Zm8.608,-0.77c-0.74,0.605 -1.534,0.907 -2.381,0.907c-0.603,0 -1.124,-0.144 -1.559,-0.431c-0.435,-0.287 -0.654,-0.736 -0.654,-1.35c0,-0.413 0.111,-0.761 0.336,-1.036c0.223,-0.278 0.499,-0.482 0.829,-0.614c0.33,-0.131 0.791,-0.229 1.384,-0.296c0.886,-0.101 1.537,-0.223 1.953,-0.361c0,-0.409 -0.026,-0.699 -0.083,-0.867c-0.054,-0.168 -0.196,-0.324 -0.435,-0.465c-0.235,-0.143 -0.581,-0.214 -1.035,-0.214c-0.447,0 -0.806,0.077 -1.079,0.223c-0.273,0.15 -0.476,0.471 -0.61,0.963l-1.07,-0.144c0.27,-1.274 1.242,-1.912 2.918,-1.912c0.702,0 1.238,0.092 1.607,0.281c0.365,0.186 0.609,0.431 0.723,0.727c0.118,0.296 0.175,0.742 0.175,1.341l0.006,2.744c0,0.446 0.115,0.87 0.343,1.274l-1.149,0c-0.114,-0.217 -0.187,-0.474 -0.219,-0.77Zm-0.092,-2.353c-0.403,0.156 -1,0.291 -1.791,0.397c-0.705,0.092 -1.136,0.239 -1.298,0.437c-0.159,0.199 -0.241,0.404 -0.241,0.62c0,0.654 0.435,0.984 1.301,0.984c1.353,0 2.029,-0.684 2.029,-2.056l0,-0.382Zm3.026,3.123l0,-6.23l0.988,0l0,0.886c0.473,-0.684 1.161,-1.023 2.06,-1.023c0.581,0 1.038,0.107 1.372,0.327c0.329,0.22 0.555,0.492 0.669,0.819c0.115,0.323 0.172,0.788 0.172,1.39l0,3.831l-1.099,0l0,-3.786c0,-1.115 -0.447,-1.671 -1.346,-1.671c-1.146,0 -1.717,0.685 -1.717,2.056l0,3.401l-1.099,0Zm6.957,0.513l1.066,0.153c0.089,0.66 0.585,0.989 1.49,0.989c0.476,0 0.86,-0.094 1.149,-0.281c0.289,-0.189 0.473,-0.424 0.549,-0.705c0.076,-0.281 0.114,-0.776 0.114,-1.485c-0.479,0.544 -1.076,0.816 -1.79,0.816c-0.857,0 -1.537,-0.297 -2.042,-0.89c-0.504,-0.592 -0.758,-1.344 -0.758,-2.26c0,-1.018 0.263,-1.809 0.79,-2.374c0.527,-0.562 1.197,-0.843 2.013,-0.843c0.768,0 1.397,0.296 1.889,0.889l0,-0.752l1.013,0l0,5.383c0,0.7 -0.057,1.274 -0.178,1.729c-0.121,0.453 -0.413,0.841 -0.883,1.161c-0.47,0.324 -1.092,0.486 -1.863,0.486c-0.857,0 -1.502,-0.183 -1.934,-0.55c-0.435,-0.363 -0.644,-0.852 -0.625,-1.466Zm0.908,-3.74c0,1.568 0.59,2.353 1.771,2.353c0.578,0 1.02,-0.211 1.324,-0.63c0.305,-0.421 0.457,-0.983 0.457,-1.686c0,-0.672 -0.155,-1.225 -0.473,-1.656c-0.314,-0.433 -0.755,-0.651 -1.327,-0.651c-0.571,0 -1.009,0.221 -1.304,0.657c-0.299,0.437 -0.448,0.975 -0.448,1.613Zm10.88,1.222l1.131,0.135c-0.375,1.338 -1.324,2.007 -2.845,2.007c-0.581,0 -1.095,-0.107 -1.546,-0.324c-0.448,-0.217 -0.816,-0.562 -1.105,-1.042c-0.289,-0.479 -0.432,-1.09 -0.432,-1.833c0,-0.635 0.112,-1.2 0.334,-1.692c0.222,-0.492 0.562,-0.883 1.016,-1.176c0.454,-0.294 1.013,-0.437 1.673,-0.437c0.695,0 1.264,0.162 1.714,0.489c0.448,0.327 0.762,0.727 0.946,1.197c0.184,0.474 0.28,1.085 0.28,1.833l-4.829,0c0.041,0.657 0.235,1.177 0.581,1.555c0.346,0.379 0.806,0.568 1.378,0.568c0.819,0 1.387,-0.427 1.704,-1.28Zm-3.603,-1.704l3.613,0c-0.048,-0.599 -0.238,-1.045 -0.565,-1.345c-0.33,-0.296 -0.73,-0.446 -1.206,-0.446c-0.518,0 -0.946,0.165 -1.283,0.495c-0.34,0.327 -0.524,0.761 -0.559,1.296Zm9.975,0.593c0,-1.164 0.312,-1.998 0.931,-2.5c0.615,-0.501 1.32,-0.751 2.108,-0.751c0.924,0 1.66,0.287 2.206,0.864c0.546,0.578 0.823,1.345 0.823,2.304c0,1.142 -0.293,1.983 -0.877,2.523c-0.581,0.544 -1.298,0.813 -2.152,0.813c-1.054,0 -1.826,-0.318 -2.308,-0.953c-0.486,-0.636 -0.731,-1.403 -0.731,-2.3Zm1.131,0c0,0.732 0.165,1.313 0.495,1.744c0.33,0.431 0.803,0.647 1.413,0.647c0.638,0 1.114,-0.229 1.429,-0.687c0.311,-0.458 0.469,-1.039 0.469,-1.738c0,-0.626 -0.152,-1.176 -0.457,-1.644c-0.305,-0.467 -0.784,-0.703 -1.441,-0.703c-0.642,0 -1.121,0.227 -1.435,0.676c-0.315,0.452 -0.473,1.02 -0.473,1.705Zm6.696,3.116l0,-5.408l-0.965,0l0,-0.822l0.965,0l0,-0.663c0,-0.366 0.041,-0.678 0.118,-0.937c0.076,-0.26 0.257,-0.477 0.539,-0.654c0.283,-0.175 0.661,-0.26 1.134,-0.26c0.311,0 0.654,0.034 1.028,0.107l-0.168,0.923c-0.225,-0.043 -0.441,-0.065 -0.644,-0.065c-0.34,0 -0.575,0.071 -0.712,0.208c-0.133,0.141 -0.2,0.394 -0.2,0.767l0,0.574l1.261,0l0,0.822l-1.261,0l0,5.408l-1.095,0Z" style="fill:#2a2a2a;fill-rule:nonzero;"/><path d="M117.231,72.803l2.056,0.287c-0.227,1.419 -0.801,2.525 -1.729,3.328c-0.928,0.803 -2.071,1.203 -3.422,1.203c-1.693,0 -3.056,-0.556 -4.084,-1.666c-1.031,-1.111 -1.545,-2.701 -1.545,-4.77c0,-1.343 0.223,-2.513 0.665,-3.52c0.442,-1.003 1.116,-1.758 2.024,-2.257c0.904,-0.504 1.888,-0.755 2.956,-0.755c1.343,0 2.446,0.339 3.299,1.022c0.856,0.684 1.406,1.654 1.645,2.909l-2.032,0.312c-0.195,-0.836 -0.538,-1.463 -1.036,-1.886c-0.494,-0.42 -1.091,-0.631 -1.793,-0.631c-1.059,0 -1.92,0.379 -2.585,1.138c-0.661,0.763 -0.992,1.962 -0.992,3.608c0,1.67 0.319,2.88 0.956,3.635c0.642,0.755 1.474,1.135 2.498,1.135c0.829,0 1.518,-0.252 2.068,-0.759c0.553,-0.504 0.904,-1.283 1.051,-2.333Zm3.724,-1.666c0,-2.297 0.638,-3.999 1.917,-5.106c1.064,-0.919 2.366,-1.378 3.9,-1.378c1.701,0 3.095,0.559 4.179,1.678c1.08,1.114 1.622,2.66 1.622,4.63c0,1.598 -0.239,2.852 -0.718,3.767c-0.478,0.915 -1.175,1.626 -2.091,2.134c-0.913,0.507 -1.912,0.759 -2.992,0.759c-1.737,0 -3.139,-0.556 -4.211,-1.67c-1.072,-1.115 -1.606,-2.721 -1.606,-4.814Zm2.152,0.004c0,1.59 0.346,2.78 1.04,3.567c0.697,0.791 1.569,1.187 2.625,1.187c1.044,0 1.912,-0.396 2.609,-1.191c0.694,-0.795 1.04,-2.005 1.04,-3.631c0,-1.534 -0.35,-2.697 -1.047,-3.484c-0.698,-0.791 -1.566,-1.186 -2.602,-1.186c-1.056,0 -1.928,0.391 -2.625,1.178c-0.694,0.787 -1.04,1.974 -1.04,3.56Zm12.596,6.216l0,-12.441l1.888,0l0,1.766c0.909,-1.354 2.223,-2.029 3.94,-2.029c0.749,0 1.434,0.136 2.06,0.403c0.626,0.268 1.096,0.623 1.406,1.059c0.311,0.435 0.53,0.955 0.654,1.554c0.075,0.391 0.115,1.075 0.115,2.049l0,7.639l-2.103,0l0,-7.559c0,-0.859 -0.08,-1.502 -0.243,-1.925c-0.164,-0.424 -0.455,-0.763 -0.869,-1.019c-0.414,-0.252 -0.904,-0.38 -1.462,-0.38c-0.892,0 -1.661,0.284 -2.311,0.855c-0.649,0.568 -0.972,1.65 -0.972,3.24l0,6.788l-2.103,0Zm13.122,-3.715l2.079,-0.336c0.116,0.835 0.442,1.474 0.976,1.922c0.534,0.443 1.283,0.667 2.239,0.667c0.968,0 1.686,-0.196 2.156,-0.592c0.466,-0.391 0.701,-0.854 0.701,-1.386c0,-0.475 -0.211,-0.851 -0.629,-1.122c-0.295,-0.188 -1.012,-0.424 -2.152,-0.716c-1.538,-0.387 -2.601,-0.723 -3.199,-1.006c-0.593,-0.288 -1.044,-0.679 -1.351,-1.183c-0.306,-0.499 -0.462,-1.054 -0.462,-1.662c0,-0.555 0.128,-1.066 0.379,-1.538c0.255,-0.471 0.597,-0.863 1.032,-1.174c0.326,-0.24 0.772,-0.444 1.334,-0.612c0.566,-0.167 1.168,-0.251 1.813,-0.251c0.972,0 1.825,0.14 2.557,0.423c0.738,0.28 1.279,0.663 1.63,1.143c0.347,0.483 0.59,1.126 0.721,1.933l-2.056,0.288c-0.091,-0.647 -0.362,-1.155 -0.808,-1.518c-0.447,-0.364 -1.076,-0.543 -1.893,-0.543c-0.96,0 -1.649,0.159 -2.059,0.479c-0.411,0.32 -0.618,0.695 -0.618,1.123c0,0.271 0.084,0.519 0.255,0.739c0.171,0.223 0.438,0.411 0.805,0.559c0.211,0.08 0.824,0.26 1.852,0.539c1.482,0.396 2.518,0.723 3.108,0.975c0.589,0.252 1.052,0.623 1.386,1.103c0.339,0.483 0.506,1.082 0.506,1.801c0,0.699 -0.203,1.359 -0.613,1.978c-0.41,0.619 -1.001,1.099 -1.769,1.438c-0.773,0.34 -1.646,0.508 -2.618,0.508c-1.609,0 -2.84,-0.336 -3.685,-1.003c-0.844,-0.671 -1.382,-1.662 -1.617,-2.976Zm18.018,1.833l0.287,1.862c-0.59,0.124 -1.12,0.188 -1.582,0.188c-0.761,0 -1.35,-0.12 -1.773,-0.364c-0.418,-0.243 -0.713,-0.559 -0.884,-0.955c-0.171,-0.395 -0.255,-1.226 -0.255,-2.493l0,-7.167l-1.554,0l0,-1.63l1.554,0l0,-3.076l2.104,-1.266l0,4.342l2.103,0l0,1.63l-2.103,0l0,7.287c0,0.603 0.035,0.991 0.111,1.163c0.072,0.172 0.192,0.307 0.359,0.411c0.167,0.1 0.406,0.152 0.717,0.152c0.231,0 0.538,-0.028 0.916,-0.084Zm2.716,1.882l0,-12.441l1.888,0l0,1.906c0.482,-0.883 0.928,-1.466 1.339,-1.746c0.41,-0.283 0.861,-0.423 1.35,-0.423c0.71,0 1.431,0.223 2.164,0.667l-0.749,1.946c-0.51,-0.288 -1.02,-0.432 -1.53,-0.432c-0.458,0 -0.869,0.14 -1.231,0.416c-0.362,0.275 -0.622,0.659 -0.777,1.15c-0.235,0.747 -0.35,1.566 -0.35,2.457l0,6.5l-2.104,0Zm16.751,0l0,-1.85c-0.964,1.411 -2.271,2.114 -3.924,2.114c-0.729,0 -1.41,-0.14 -2.044,-0.42c-0.633,-0.283 -1.103,-0.635 -1.41,-1.059c-0.307,-0.427 -0.522,-0.946 -0.645,-1.562c-0.084,-0.415 -0.128,-1.07 -0.128,-1.965l0,-7.699l2.104,0l0,6.884c0,1.098 0.043,1.842 0.127,2.221c0.131,0.555 0.41,0.987 0.841,1.302c0.426,0.316 0.952,0.476 1.581,0.476c0.63,0 1.219,-0.16 1.769,-0.483c0.55,-0.324 0.94,-0.768 1.172,-1.323c0.227,-0.555 0.342,-1.366 0.342,-2.425l0,-6.652l2.104,0l0,12.441l-1.889,0Zm13.959,-4.554l2.055,0.287c-0.227,1.419 -0.8,2.525 -1.729,3.328c-0.928,0.803 -2.071,1.203 -3.422,1.203c-1.693,0 -3.056,-0.556 -4.083,-1.666c-1.032,-1.111 -1.546,-2.701 -1.546,-4.77c0,-1.343 0.223,-2.513 0.665,-3.52c0.442,-1.003 1.116,-1.758 2.024,-2.257c0.904,-0.504 1.888,-0.755 2.956,-0.755c1.343,0 2.446,0.339 3.299,1.022c0.856,0.684 1.406,1.654 1.645,2.909l-2.032,0.312c-0.195,-0.836 -0.537,-1.463 -1.036,-1.886c-0.493,-0.42 -1.091,-0.631 -1.792,-0.631c-1.06,0 -1.92,0.379 -2.586,1.138c-0.661,0.763 -0.992,1.962 -0.992,3.608c0,1.67 0.319,2.88 0.956,3.635c0.642,0.755 1.474,1.135 2.498,1.135c0.829,0 1.518,-0.252 2.068,-0.759c0.554,-0.504 0.904,-1.283 1.052,-2.333Zm9.078,2.672l0.287,1.862c-0.59,0.124 -1.12,0.188 -1.582,0.188c-0.761,0 -1.35,-0.12 -1.773,-0.364c-0.418,-0.243 -0.713,-0.559 -0.884,-0.955c-0.171,-0.395 -0.255,-1.226 -0.255,-2.493l0,-7.167l-1.554,0l0,-1.63l1.554,0l0,-3.076l2.104,-1.266l0,4.342l2.103,0l0,1.63l-2.103,0l0,7.287c0,0.603 0.035,0.991 0.111,1.163c0.072,0.172 0.191,0.307 0.359,0.411c0.167,0.1 0.406,0.152 0.717,0.152c0.231,0 0.538,-0.028 0.916,-0.084Zm2.74,-12.884l0,-2.397l2.103,0l0,2.397l-2.103,0Zm0,14.766l0,-12.441l2.103,0l0,12.441l-2.103,0Zm5.186,-6.22c0,-2.297 0.637,-3.999 1.916,-5.106c1.064,-0.919 2.367,-1.378 3.9,-1.378c1.702,0 3.096,0.559 4.18,1.678c1.079,1.114 1.621,2.66 1.621,4.63c0,1.598 -0.239,2.852 -0.717,3.767c-0.478,0.915 -1.175,1.626 -2.092,2.134c-0.912,0.507 -1.912,0.759 -2.992,0.759c-1.737,0 -3.139,-0.556 -4.211,-1.67c-1.071,-1.115 -1.605,-2.721 -1.605,-4.814Zm2.151,0.004c0,1.59 0.347,2.78 1.04,3.567c0.697,0.791 1.57,1.187 2.625,1.187c1.044,0 1.913,-0.396 2.61,-1.191c0.693,-0.795 1.04,-2.005 1.04,-3.631c0,-1.534 -0.351,-2.697 -1.048,-3.484c-0.697,-0.791 -1.566,-1.186 -2.602,-1.186c-1.055,0 -1.928,0.391 -2.625,1.178c-0.693,0.787 -1.04,1.974 -1.04,3.56Zm12.596,6.216l0,-12.441l1.889,0l0,1.766c0.908,-1.354 2.223,-2.029 3.94,-2.029c0.748,0 1.434,0.136 2.059,0.403c0.626,0.268 1.096,0.623 1.407,1.059c0.311,0.435 0.53,0.955 0.653,1.554c0.076,0.391 0.116,1.075 0.116,2.049l0,7.639l-2.104,0l0,-7.559c0,-0.859 -0.08,-1.502 -0.243,-1.925c-0.163,-0.424 -0.454,-0.763 -0.868,-1.019c-0.415,-0.252 -0.905,-0.38 -1.463,-0.38c-0.892,0 -1.661,0.284 -2.31,0.855c-0.65,0.568 -0.972,1.65 -0.972,3.24l0,6.788l-2.104,0Zm28.039,-4.554l2.056,0.287c-0.227,1.419 -0.801,2.525 -1.73,3.328c-0.928,0.803 -2.071,1.203 -3.422,1.203c-1.693,0 -3.055,-0.556 -4.083,-1.666c-1.032,-1.111 -1.546,-2.701 -1.546,-4.77c0,-1.343 0.223,-2.513 0.665,-3.52c0.443,-1.003 1.116,-1.758 2.024,-2.257c0.905,-0.504 1.889,-0.755 2.956,-0.755c1.343,0 2.446,0.339 3.299,1.022c0.857,0.684 1.406,1.654 1.645,2.909l-2.031,0.312c-0.196,-0.836 -0.538,-1.463 -1.036,-1.886c-0.494,-0.42 -1.092,-0.631 -1.793,-0.631c-1.06,0 -1.92,0.379 -2.586,1.138c-0.661,0.763 -0.992,1.962 -0.992,3.608c0,1.67 0.319,2.88 0.956,3.635c0.642,0.755 1.475,1.135 2.499,1.135c0.828,0 1.517,-0.252 2.067,-0.759c0.554,-0.504 0.905,-1.283 1.052,-2.333Zm4.513,4.554l0,-17.163l2.103,0l0,6.176c0.976,-1.146 2.207,-1.717 3.697,-1.717c0.913,0 1.705,0.18 2.383,0.543c0.673,0.364 1.155,0.863 1.446,1.502c0.291,0.639 0.434,1.57 0.434,2.785l0,7.874l-2.103,0l0,-7.866c0,-1.051 -0.227,-1.818 -0.678,-2.298c-0.454,-0.479 -1.091,-0.719 -1.92,-0.719c-0.617,0 -1.199,0.16 -1.745,0.484c-0.546,0.323 -0.932,0.763 -1.167,1.318c-0.231,0.551 -0.347,1.314 -0.347,2.289l0,6.792l-2.103,0Zm22.42,-4.027l2.175,0.288c-0.338,1.266 -0.972,2.253 -1.896,2.952c-0.924,0.699 -2.104,1.051 -3.542,1.051c-1.808,0 -3.243,-0.56 -4.302,-1.678c-1.06,-1.115 -1.59,-2.685 -1.59,-4.703c0,-2.085 0.534,-3.707 1.606,-4.857c1.071,-1.155 2.462,-1.73 4.171,-1.73c1.653,0 3.004,0.563 4.051,1.694c1.048,1.13 1.574,2.72 1.574,4.77c0,0.123 -0.004,0.311 -0.012,0.559l-9.239,0c0.08,1.362 0.462,2.409 1.156,3.132c0.689,0.723 1.553,1.087 2.585,1.087c0.769,0 1.426,-0.204 1.968,-0.612c0.546,-0.407 0.976,-1.058 1.295,-1.953Zm-6.884,-3.38l6.908,0c-0.092,-1.047 -0.359,-1.83 -0.793,-2.353c-0.665,-0.811 -1.534,-1.218 -2.597,-1.218c-0.965,0 -1.773,0.323 -2.431,0.97c-0.653,0.648 -1.015,1.514 -1.087,2.601Zm12.381,7.407l0,-12.441l1.888,0l0,1.758c0.386,-0.607 0.905,-1.098 1.55,-1.466c0.645,-0.372 1.378,-0.555 2.203,-0.555c0.916,0 1.669,0.191 2.255,0.571c0.586,0.383 1,0.915 1.239,1.602c0.988,-1.45 2.267,-2.173 3.844,-2.173c1.236,0 2.188,0.339 2.849,1.022c0.665,0.684 1,1.734 1,3.152l0,8.53l-2.104,0l0,-7.83c0,-0.839 -0.071,-1.447 -0.207,-1.818c-0.135,-0.372 -0.382,-0.667 -0.745,-0.895c-0.358,-0.228 -0.78,-0.34 -1.263,-0.34c-0.876,0 -1.601,0.292 -2.179,0.871c-0.578,0.584 -0.864,1.514 -0.864,2.793l0,7.219l-2.104,0l0,-8.074c0,-0.935 -0.171,-1.638 -0.514,-2.106c-0.342,-0.467 -0.904,-0.703 -1.681,-0.703c-0.59,0 -1.136,0.156 -1.637,0.468c-0.503,0.311 -0.865,0.767 -1.092,1.37c-0.223,0.599 -0.335,1.466 -0.335,2.597l0,6.448l-2.103,0Zm20.576,-14.766l0,-2.397l2.103,0l0,2.397l-2.103,0Zm0,14.766l0,-12.441l2.103,0l0,12.441l-2.103,0Zm14.078,-4.554l2.055,0.287c-0.227,1.419 -0.8,2.525 -1.729,3.328c-0.928,0.803 -2.071,1.203 -3.422,1.203c-1.693,0 -3.055,-0.556 -4.083,-1.666c-1.032,-1.111 -1.546,-2.701 -1.546,-4.77c0,-1.343 0.223,-2.513 0.665,-3.52c0.442,-1.003 1.116,-1.758 2.024,-2.257c0.905,-0.504 1.888,-0.755 2.956,-0.755c1.343,0 2.446,0.339 3.299,1.022c0.856,0.684 1.406,1.654 1.645,2.909l-2.031,0.312c-0.196,-0.836 -0.538,-1.463 -1.037,-1.886c-0.493,-0.42 -1.091,-0.631 -1.792,-0.631c-1.06,0 -1.92,0.379 -2.586,1.138c-0.661,0.763 -0.992,1.962 -0.992,3.608c0,1.67 0.319,2.88 0.956,3.635c0.642,0.755 1.474,1.135 2.498,1.135c0.829,0 1.518,-0.252 2.068,-0.759c0.554,-0.504 0.904,-1.283 1.052,-2.333Zm12.616,2.996c-0.781,0.667 -1.534,1.134 -2.255,1.41c-0.721,0.276 -1.494,0.412 -2.323,0.412c-1.362,0 -2.41,-0.332 -3.143,-0.999c-0.733,-0.663 -1.099,-1.514 -1.099,-2.549c0,-0.607 0.139,-1.163 0.414,-1.666c0.279,-0.503 0.641,-0.903 1.087,-1.207c0.451,-0.303 0.953,-0.535 1.514,-0.691c0.415,-0.107 1.04,-0.211 1.873,-0.315c1.697,-0.2 2.952,-0.444 3.753,-0.723c0.007,-0.288 0.012,-0.472 0.012,-0.548c0,-0.855 -0.199,-1.458 -0.598,-1.809c-0.538,-0.476 -1.339,-0.711 -2.398,-0.711c-0.992,0 -1.725,0.175 -2.195,0.523c-0.475,0.347 -0.821,0.963 -1.048,1.85l-2.056,-0.288c0.187,-0.883 0.494,-1.598 0.924,-2.141c0.43,-0.544 1.052,-0.959 1.865,-1.255c0.809,-0.292 1.753,-0.439 2.82,-0.439c1.06,0 1.925,0.124 2.59,0.375c0.661,0.252 1.151,0.564 1.462,0.943c0.311,0.379 0.53,0.859 0.657,1.438c0.068,0.36 0.104,1.007 0.104,1.938l0,2.796c0,1.954 0.044,3.188 0.131,3.712c0.084,0.523 0.259,1.023 0.514,1.502l-2.199,0c-0.211,-0.444 -0.346,-0.963 -0.406,-1.558Zm-0.167,-4.674c-0.765,0.311 -1.913,0.575 -3.443,0.791c-0.868,0.124 -1.481,0.263 -1.84,0.419c-0.359,0.156 -0.633,0.384 -0.829,0.679c-0.195,0.3 -0.295,0.632 -0.295,0.999c0,0.556 0.211,1.023 0.638,1.394c0.426,0.372 1.048,0.56 1.864,0.56c0.809,0 1.53,-0.176 2.164,-0.532c0.629,-0.351 1.095,-0.835 1.39,-1.446c0.227,-0.475 0.339,-1.174 0.339,-2.097l0.012,-0.767Zm5.974,6.232l0,-17.163l2.104,0l0,17.163l-2.104,0Zm5.186,-3.715l2.08,-0.336c0.115,0.835 0.442,1.474 0.976,1.922c0.534,0.443 1.283,0.667 2.239,0.667c0.968,0 1.685,-0.196 2.155,-0.592c0.466,-0.391 0.702,-0.854 0.702,-1.386c0,-0.475 -0.212,-0.851 -0.63,-1.122c-0.295,-0.188 -1.012,-0.424 -2.151,-0.716c-1.538,-0.387 -2.602,-0.723 -3.199,-1.006c-0.594,-0.288 -1.044,-0.68 -1.351,-1.183c-0.307,-0.499 -0.462,-1.054 -0.462,-1.662c0,-0.555 0.127,-1.066 0.378,-1.538c0.255,-0.471 0.598,-0.863 1.032,-1.174c0.327,-0.24 0.773,-0.444 1.335,-0.612c0.565,-0.167 1.167,-0.251 1.812,-0.251c0.972,0 1.825,0.14 2.558,0.423c0.737,0.28 1.279,0.663 1.63,1.143c0.346,0.483 0.589,1.126 0.721,1.933l-2.056,0.288c-0.092,-0.647 -0.363,-1.155 -0.809,-1.518c-0.446,-0.364 -1.076,-0.543 -1.892,-0.543c-0.96,0 -1.65,0.159 -2.06,0.479c-0.41,0.319 -0.617,0.695 -0.617,1.123c0,0.271 0.083,0.519 0.255,0.739c0.171,0.223 0.438,0.411 0.804,0.559c0.212,0.08 0.825,0.26 1.853,0.539c1.482,0.396 2.518,0.723 3.107,0.975c0.59,0.252 1.052,0.623 1.387,1.103c0.339,0.483 0.506,1.082 0.506,1.801c0,0.699 -0.203,1.359 -0.614,1.978c-0.41,0.619 -1,1.099 -1.769,1.438c-0.773,0.34 -1.645,0.508 -2.617,0.508c-1.61,0 -2.841,-0.336 -3.685,-1.003c-0.845,-0.671 -1.383,-1.662 -1.618,-2.976" style="fill:#2a2a2a;fill-rule:nonzero;"/><rect x="107.551" y="84.093" width="234.763" height="2.433" style="fill:#f27d21;"/><rect x="345.715" y="84.093" width="15.324" height="2.433" style="fill:#2a2a2a;"/><path d="M0,84.084l88.909,0l0,2.443l-88.909,0l0,-2.443Zm44.388,-38.475c-0.658,0 -1.35,-2.481 -1.521,-2.924l-2.911,-8.486l-24.873,0l0,-9.256l21.169,0l-6.483,-18.9l-29.769,0l0,52.97l15.083,0l0,-12.343l58.61,0l0,12.343l15.216,0l0,-52.97l-29.901,0l-6.483,18.9l21.168,0l0,9.256l-24.74,0l-3.043,8.486c-0.171,0.443 -0.863,2.924 -1.522,2.924Zm35.656,35.518l0,-12.6l8.732,0l0,2.186l-6.35,0l0,2.7l5.954,0l0,2.185l-5.954,0l0,3.343l6.747,0l0,2.186l-9.129,0Zm-7.674,0l0,-10.414l-3.571,0l0,-2.186l9.658,0l0,2.186l-3.573,0l0,10.414l-2.514,0Zm-3.307,0l-2.646,0l-1.058,-2.829l-4.367,0l-0.926,2.829l-2.646,0l4.499,-12.6l2.645,0l4.499,12.6Zm-4.234,-4.886l-1.588,-4.628l-1.587,4.628l3.175,0Zm-20.374,4.886l0,-12.6l3.704,0l2.249,8.614l2.249,-8.614l3.705,0l0,12.6l-2.25,0l-0.132,-9.9l-2.381,9.9l-2.249,0l-2.382,-9.9l0,9.9l-2.513,0Zm-17.994,0l0,-12.6l5.028,0c2.369,0 4.511,0.675 4.763,3.086c0.251,2.41 -0.764,3.594 -3.175,3.985c0.513,0.333 0.887,0.606 1.323,1.029c0.998,1.457 1.874,2.982 2.778,4.5l-2.911,0l-1.985,-3.343c-0.798,-1.296 -1.915,-1.928 -3.439,-1.928l0,5.271l-2.382,0Zm2.382,-7.457l1.72,0c1.137,0 3.175,0.146 3.175,-1.414c0,-1.446 -1.658,-1.543 -3.043,-1.543l-1.852,0l0,2.957Zm-7.145,7.457l0,-12.6l2.382,0l0,12.6l-2.382,0Zm-1.852,0l-2.646,0l-1.059,-2.829l-4.366,0l-0.925,2.829l-2.647,0l4.498,-12.6l2.647,0l4.498,12.6Zm-4.234,-4.886l-1.588,-4.628l-1.587,4.628l3.175,0Zm-15.48,4.886l0,-12.6l8.204,0l0,2.186l-5.822,0l0,2.828l5.027,0l0,2.186l-5.027,0l0,5.4l-2.382,0Zm-0.132,-81.127l88.909,0l0,2.571l-88.909,0l0,-2.571Zm0,61.97l88.909,0l0,2.571l-88.909,0l0,-2.571Z" style="fill:#f27d21;"/><path d="M94.719,0c0.6,0 1.175,0.149 1.725,0.45c0.552,0.299 0.985,0.73 1.3,1.289c0.315,0.561 0.472,1.147 0.472,1.758c0,0.61 -0.154,1.191 -0.463,1.743c-0.31,0.551 -0.74,0.983 -1.293,1.291c-0.552,0.309 -1.133,0.464 -1.741,0.464c-0.609,0 -1.189,-0.155 -1.742,-0.464c-0.552,-0.308 -0.984,-0.74 -1.292,-1.291c-0.309,-0.552 -0.463,-1.133 -0.463,-1.743c0,-0.611 0.157,-1.197 0.472,-1.758c0.315,-0.559 0.748,-0.99 1.298,-1.289c0.552,-0.301 1.127,-0.45 1.727,-0.45Zm0.005,0.686c-0.482,0 -0.943,0.12 -1.384,0.36c-0.441,0.24 -0.789,0.586 -1.043,1.036c-0.255,0.451 -0.382,0.923 -0.382,1.415c0,0.491 0.125,0.959 0.373,1.403c0.248,0.444 0.594,0.792 1.038,1.041c0.444,0.249 0.91,0.374 1.398,0.374c0.489,0 0.955,-0.125 1.399,-0.374c0.443,-0.249 0.789,-0.597 1.038,-1.041c0.25,-0.444 0.374,-0.912 0.374,-1.403c0,-0.492 -0.126,-0.964 -0.38,-1.415c-0.254,-0.45 -0.603,-0.796 -1.046,-1.036c-0.442,-0.24 -0.905,-0.36 -1.385,-0.36Zm-1.585,4.683l0,-3.711l0.754,0c0.706,0 1.102,0.003 1.186,0.009c0.25,0.021 0.444,0.071 0.583,0.148c0.139,0.078 0.254,0.197 0.346,0.356c0.093,0.16 0.14,0.338 0.14,0.533c0,0.266 -0.087,0.496 -0.263,0.685c-0.175,0.192 -0.421,0.309 -0.737,0.356c0.112,0.042 0.199,0.089 0.26,0.139c0.061,0.05 0.145,0.145 0.251,0.285c0.028,0.036 0.118,0.187 0.274,0.452l0.438,0.748l-0.93,0l-0.312,-0.601c-0.209,-0.406 -0.383,-0.661 -0.521,-0.766c-0.135,-0.104 -0.31,-0.157 -0.52,-0.157l-0.195,0l0,1.524l-0.754,0Zm0.754,-2.109l0.306,0c0.434,0 0.704,-0.017 0.81,-0.05c0.104,-0.034 0.187,-0.092 0.248,-0.176c0.062,-0.084 0.092,-0.179 0.092,-0.285c0,-0.104 -0.03,-0.196 -0.089,-0.276c-0.059,-0.081 -0.144,-0.138 -0.254,-0.174c-0.109,-0.035 -0.379,-0.052 -0.807,-0.052l-0.306,0l0,1.013Z" style="fill:#f27d21;"/></g></svg>