<?xml version="1.0" encoding="UTF-8"?>
<svg id="Layer_1" data-name="Layer 1" xmlns="http://www.w3.org/2000/svg" version="1.1" viewBox="0 0 100 35.1">
  <defs>
    <style>
      .cls-1 {
        fill: #000;
      }

      .cls-1, .cls-2, .cls-3 {
        stroke-width: 0px;
      }

      .cls-2 {
        fill: #ffeb00;
      }

      .cls-3 {
        fill: none;
      }
    </style>
  </defs>
  <path class="cls-3" d="M0,0h100v35.1H0V0Z"/>
  <path class="cls-1" d="M25.9,20.7l-4.1-11.8c-.1-.4-.6-.6-1-.5-.1,0-.2.1-.3.2l-2.2,2.6,2,5.8c.1.4,0,.8-.5,1,0,0-.2,0-.3,0h-7l-2.2,2.6c-.2.3-.2.7.1,1,.1.1.3.2.4.2h14.2c.4,0,.7-.3.8-.7,0,0,0-.2,0-.3h0Z"/>
  <path class="cls-2" d="M16.2,5.2l4.1,11.8c.1.4,0,.8-.5,1,0,0-.2,0-.3,0H5.4c-.4,0-.7-.3-.7-.7,0-.2,0-.3.2-.4L14.9,4.9c.3-.3.8-.4,1.1,0,.1,0,.2.2.2.3h0Z"/>
  <path class="cls-1" d="M56.6,28c-.6-.2-.8-.3-.8-.6s.4-.4.7-.4c.3,0,.6,0,.8.2,0,0,.2,0,.3,0,0,0,0,0,0,0v-.2c.1,0,.1-.2,0-.3-.3-.2-.7-.3-1.1-.3-.8,0-1.4.4-1.4,1s.7,1,1.2,1.2c.6.2.8.3.8.6s-.4.5-.8.5c-.4,0-.7-.2-1-.4,0,0-.1,0-.2,0,0,0-.1,0-.2,0v.2c-.2,0-.1.2,0,.3.4.4.9.6,1.4.6.8,0,1.4-.4,1.4-1.1,0-.8-.7-1-1.2-1.2M60.4,26.5c0,0-.1-.1-.2-.1h-.2c0,0-.2,0-.2.1l-1.6,3.5c0,.1,0,.2.1.3,0,0,0,0,0,0h.2c0,0,.2,0,.2-.1l.4-.9h1.8l.4.9c0,0,.1.1.2.1h.2c.1,0,.2,0,.2-.2,0,0,0,0,0,0l-1.6-3.5ZM59.5,28.7l.6-1.3.6,1.3h-1.2ZM63,26.4h-.2c-.1,0-.2,0-.2.2v3.5c0,.1,0,.2.2.2h.2c.1,0,.2,0,.2-.2h0v-3.5c0-.1,0-.2-.2-.2M67.4,26.4h-.2c-.1,0-.2,0-.2.2h0v2.5l-2-2.7c0,0-.1,0-.2,0h-.2c-.1,0-.2,0-.2.2h0v3.5c0,.1,0,.2.2.2h.2c.1,0,.2,0,.2-.2h0v-2.5l2,2.7c0,0,.1,0,.2,0h.2c.1,0,.2,0,.2-.2h0v-3.5c0-.1,0-.2-.2-.2M71,26.4h-2.6c-.1,0-.2,0-.2.2h0v.2c0,.1,0,.2.2.2h1v3.1c0,.1,0,.2.2.2h.2c.1,0,.2,0,.2-.2h0v-3.1h1c.1,0,.2,0,.2-.2v-.2c0-.1,0-.2-.2-.2M72.5,28.3h-1.1c-.1,0-.2,0-.2.2v.2c0,.1,0,.2.2.2h1.1c.1,0,.2,0,.2-.2v-.2c0-.1,0-.2-.2-.2M76.8,28.2h-.8c-.1,0-.2,0-.2.2v.2c0,.1,0,.2.2.2h.4v.6c-.2.2-.5.3-.8.3-.7,0-1.3-.6-1.3-1.3s.6-1.3,1.3-1.3c.4,0,.7.1,1,.4,0,0,.2,0,.3,0,0,0,0,0,0,0v-.2c.2,0,.2-.2.1-.3-.4-.3-.9-.5-1.4-.5-1.1,0-2,.8-2,1.9,0,1.1.8,2,1.9,2,0,0,0,0,.1,0,.5,0,1-.2,1.4-.5,0,0,0,0,0-.2v-1.3c0-.1,0-.2-.2-.2M79.8,26.4c-1.1,0-1.9.9-1.9,2,0,1.1.9,1.9,2,1.9,1.1,0,1.9-.9,1.9-2,0-1.1-.9-2-2-2M79.8,29.7c-.7,0-1.3-.6-1.3-1.4,0-.7.6-1.3,1.4-1.3.7,0,1.3.6,1.3,1.3,0,.8-.6,1.4-1.4,1.3M85.1,28.3c.2-.2.3-.5.3-.8,0-.7-.5-1.1-1.3-1.1h-1.4c-.1,0-.2,0-.2.2h0v3.5c0,.1,0,.2.2.2h1.4c.9,0,1.5-.4,1.5-1.1,0-.4-.2-.7-.5-.9M84.1,28h-1v-1h1c.3,0,.7,0,.7.5s-.2.5-.7.5M83.1,28.6h1c.3,0,.9,0,.9.5s-.5.6-.9.6h-1v-1.1ZM88.1,26.5c0,0-.1-.1-.2-.1h-.2c0,0-.2,0-.2.1l-1.6,3.5c0,.1,0,.2.1.3,0,0,0,0,0,0h.2c0,0,.2,0,.2-.1l.4-.9h1.8l.4.9c0,0,.1.1.2.1h.2c.1,0,.2,0,.2-.2,0,0,0,0,0,0l-1.6-3.5ZM87.2,28.7l.6-1.3.6,1.3h-1.2ZM90.8,26.4h-.2c-.1,0-.2,0-.2.2v3.5c0,.1,0,.2.2.2h.2c.1,0,.2,0,.2-.2h0v-3.5c0-.1,0-.2-.2-.2M95.1,26.4h-.2c-.1,0-.2,0-.2.2h0v2.5l-2-2.7c0,0-.1,0-.2,0h-.2c-.1,0-.2,0-.2.2v3.5c0,.1,0,.2.2.2h.2c.1,0,.2,0,.2-.2h0v-2.5l2,2.7c0,0,.1,0,.2,0h.2c.1,0,.2,0,.2-.2h0v-3.5c0-.1,0-.2-.2-.2h0M51.2,9.1c-3.8,0-6.5,2.8-6.5,6.4s3.2,6.5,7.1,6.5c1.7,0,3.5-.5,4.9-1.5.3-.2.4-.6.2-1,0,0,0,0-.1-.1l-.8-.8c-.2-.2-.6-.2-.8,0-1,.6-2.1.9-3.3.9-2.4,0-3.8-1.5-4.1-2.7h9.2c.3,0,.6-.3.7-.6,0-.2,0-.4,0-.7,0-3.5-2.8-6.4-6.3-6.5,0,0-.1,0-.2,0h0ZM51.2,11.5c2,0,3.2,1.4,3.5,2.9h-7c.4-1.6,1.6-2.9,3.5-2.9ZM42.3,9.4h1.6c.4,0,.7.3.7.7,0,0,0,.2,0,.2l-3.8,11c0,.3-.4.5-.7.5h-2.2c-.3,0-.6-.2-.7-.5l-2.4-7.6-2.4,7.6c0,.3-.4.5-.7.5h-2.2c-.3,0-.6-.2-.7-.5l-3.8-11c-.1-.4,0-.7.4-.9,0,0,.1,0,.2,0h1.6c.3,0,.6.2.7.5l2.6,8.4,2.7-8.4c0-.3.4-.5.7-.5h1.5c.3,0,.6.2.7.5l2.7,8.5,2.6-8.5c0-.3.4-.5.7-.5h0ZM94.6,9.1c-2.4,0-4.8.7-6.9,2-.2.1-.3.3-.3.6v9.3c0,.4.3.7.7.7h1.5c.4,0,.7-.3.7-.7v-8.1c1.3-.7,2.8-1.1,4.3-1.1.4,0,.7-.3.7-.7v-1.4c0-.4-.3-.7-.7-.7ZM79.5,9.1c-3.8,0-6.5,2.8-6.5,6.4s3.2,6.5,7.1,6.5c1.7,0,3.5-.5,4.9-1.5.3-.2.4-.6.2-1,0,0,0,0-.1-.1l-.8-.8c-.2-.2-.6-.2-.8,0-1,.6-2.1.9-3.3.9-2.4,0-3.8-1.5-4.1-2.7h9.2c.3,0,.6-.3.7-.6,0-.2,0-.4,0-.7,0-3.5-2.8-6.4-6.3-6.5,0,0-.1,0-.2,0h0ZM79.5,11.5c2,0,3.2,1.4,3.5,2.9h-7c.4-1.6,1.6-2.9,3.5-2.9h0ZM65.7,9.1c-1.3,0-2.7.3-3.8,1.1v-4.9c0-.4-.3-.7-.7-.7h-1.4c-.4,0-.7.3-.7.7v13c0,.3.1.6.3.9,1.2,1.7,3.7,2.8,5.8,2.8s4.3-1,5.3-2.2c1-1.2,1.6-2.7,1.5-4.2,0-3.5-2.7-6.5-6.3-6.5h0ZM65.3,19.4c-1.3,0-2.6-.5-3.4-1.5v-4.3c.7-1.2,2-1.9,3.4-1.9,2.1,0,3.9,1.7,3.9,3.8,0,2.1-1.7,3.9-3.8,3.9h0Z"/>
</svg>