<?xml version="1.0" standalone="no"?>
<!DOCTYPE svg PUBLIC "-//W3C//DTD SVG 20010904//EN"
 "http://www.w3.org/TR/2001/REC-SVG-20010904/DTD/svg10.dtd">
<svg version="1.0" xmlns="http://www.w3.org/2000/svg"
 width="192.000000pt" height="192.000000pt" viewBox="0 0 192.000000 192.000000"
 preserveAspectRatio="xMidYMid meet">
<metadata>
Created by potrace 1.10, written by Peter Selinger 2001-2011
</metadata>
<g transform="translate(0.000000,192.000000) scale(0.100000,-0.100000)"
fill="#000000" stroke="none">
<path d="M845 1860 c-325 -51 -577 -232 -707 -507 -127 -270 -114 -616 32
-854 152 -250 409 -413 688 -439 169 -15 357 17 496 86 70 34 166 94 166 104
0 3 -56 33 -124 68 l-124 62 -55 -25 c-169 -78 -390 -70 -567 20 -253 128
-383 396 -341 700 26 193 168 381 357 474 108 53 167 66 304 65 108 0 136 -4
206 -27 171 -57 294 -169 374 -340 l30 -62 126 3 126 3 -7 27 c-17 70 -71 189
-116 258 -160 244 -394 374 -704 388 -55 3 -127 1 -160 -4z m155 -42 c0 -5 -7
-20 -16 -33 -11 -17 -15 -41 -12 -77 2 -41 0 -53 -12 -53 -14 0 -22 23 -38
122 -9 51 -8 52 17 55 34 4 61 -2 61 -14z m-100 -23 c0 -8 -14 -17 -35 -21
-19 -3 -35 -11 -35 -16 0 -6 14 -8 35 -4 27 5 35 4 35 -8 0 -8 -11 -16 -27
-18 -14 -2 -29 -9 -31 -17 -4 -11 3 -13 32 -8 28 4 39 2 43 -9 8 -20 6 -21
-58 -29 l-57 -7 -7 61 c-9 80 -11 75 27 82 58 11 78 10 78 -6z m222 -13 c10
-8 15 -19 12 -23 -7 -12 -44 -11 -44 1 0 16 -37 11 -44 -6 -12 -30 -6 -53 15
-59 22 -7 43 5 22 12 -26 9 -13 33 17 33 27 0 30 -3 30 -30 0 -47 -61 -67
-108 -34 -32 22 -31 86 3 112 27 22 69 19 97 -6z m-369 -50 c9 -26 19 -55 22
-64 4 -11 -1 -18 -15 -23 -16 -5 -29 0 -51 21 -29 28 -38 20 -18 -18 9 -16 8
-23 -2 -29 -22 -14 -29 -7 -50 51 -27 76 -27 74 -1 78 15 2 33 -5 48 -19 27
-26 41 -20 25 9 -16 30 -14 42 8 42 14 0 23 -13 34 -48z m535 -15 c2 -18 -3
-29 -17 -37 -17 -9 -19 -15 -11 -36 13 -33 4 -47 -21 -34 -12 7 -19 21 -19 40
0 37 -17 39 -30 5 -8 -22 -13 -24 -29 -16 -19 11 -19 12 0 63 11 29 22 59 24
65 3 10 16 8 52 -6 38 -15 49 -24 51 -44z m-681 -59 c24 -46 29 -64 20 -70
-20 -12 -28 -5 -61 55 -26 49 -29 59 -16 67 22 15 23 14 57 -52z m-94 25 c2
-10 8 -26 12 -35 11 -26 -17 -23 -41 5 -15 16 -17 26 -10 34 16 18 33 15 39
-4z m891 -4 c34 -27 35 -71 1 -104 -29 -30 -48 -31 -86 -4 -37 26 -39 70 -4
104 30 30 54 31 89 4z m-923 -69 c25 -44 34 -48 60 -24 18 17 39 12 39 -9 -1
-11 -79 -72 -84 -65 -1 2 -20 27 -41 57 -37 51 -38 54 -20 67 10 8 20 14 21
14 2 0 13 -18 25 -40z m-76 -21 c9 -16 32 -48 52 -70 l36 -40 -26 -26 -26 -26
-30 49 c-16 27 -40 62 -52 78 l-22 28 24 19 c13 10 25 19 26 19 1 0 10 -14 18
-31z m1086 -33 c-21 -22 -31 -41 -28 -50 9 -24 22 -20 56 20 31 35 61 40 61
10 0 -18 -75 -86 -95 -86 -23 0 -65 46 -65 70 0 11 16 38 37 60 33 37 38 40
52 26 14 -14 12 -19 -18 -50z m-1136 -46 c4 -25 16 -47 31 -59 27 -21 30 -34
11 -50 -11 -8 -18 -6 -32 9 -13 15 -31 20 -67 20 -26 0 -48 4 -48 8 0 17 25
32 52 32 26 0 27 2 16 25 -8 19 -8 28 2 40 20 24 28 18 35 -25z m1295 -66 l25
-45 -24 -20 c-30 -24 -36 -24 -61 3 -18 20 -23 21 -42 9 -19 -12 -23 -11 -34
4 -12 16 -7 22 39 56 29 20 57 38 62 38 6 1 22 -20 35 -45z m-1394 -60 c-5
-20 0 -27 39 -47 41 -20 44 -24 32 -41 -13 -18 -15 -17 -56 4 -41 20 -43 21
-56 3 -10 -13 -17 -15 -25 -7 -16 16 37 124 57 117 10 -4 12 -14 9 -29z m1495
-61 c17 -36 29 -75 27 -87 -3 -19 -10 -21 -81 -24 -53 -2 -82 1 -90 10 -21 21
-67 127 -57 133 4 3 23 -1 41 -9 39 -16 70 -6 94 31 9 13 20 21 26 17 6 -3 24
-35 40 -71z m-1396 55 c26 -12 33 -32 15 -43 -12 -7 -72 40 -63 49 9 9 19 8
48 -6z m-117 -132 c36 -12 52 -23 52 -35 0 -10 -2 -20 -5 -23 -4 -4 -112 28
-133 39 -10 5 11 44 21 40 7 -2 36 -12 65 -21z m-77 -53 c40 -24 36 -33 -11
-33 -36 0 -40 3 -40 25 0 29 11 31 51 8z m104 -65 c-4 -24 -11 -47 -15 -51 -4
-5 -35 -3 -69 4 -55 10 -61 14 -61 36 0 19 4 24 16 19 9 -3 33 -9 55 -12 37
-6 39 -5 39 20 0 20 5 26 21 26 19 0 20 -4 14 -42z m-15 -97 c0 -10 -7 -21
-15 -25 -20 -7 -19 -36 2 -51 9 -7 14 -19 10 -28 -5 -15 -11 -14 -54 4 -26 11
-58 24 -70 29 -37 15 -16 51 43 71 66 23 84 23 84 0z m-9 -152 c14 -14 19 -30
17 -52 -3 -37 -34 -56 -95 -60 -32 -2 -38 1 -38 18 0 16 9 21 42 26 50 6 58
12 49 35 -4 11 -13 14 -29 11 -12 -3 -34 -9 -49 -12 -25 -6 -28 -4 -28 18 0
22 5 26 33 30 66 8 77 7 98 -14z m48 -131 c-1 -13 3 -36 10 -51 18 -46 -14
-88 -70 -89 -39 -1 -69 30 -69 73 0 31 24 53 73 64 15 4 27 11 27 16 0 5 7 9
15 9 9 0 14 -9 14 -22z m91 -177 c89 -131 187 -206 350 -266 59 -21 99 -28
187 -32 126 -6 198 4 293 43 l63 25 83 -42 c46 -23 84 -45 84 -48 0 -22 -155
-111 -192 -111 -8 0 -18 -4 -23 -8 -43 -38 -378 -51 -485 -19 -139 41 -195 68
-305 147 -109 79 -236 229 -259 306 -6 19 -3 20 31 15 39 -7 81 7 103 34 19
23 27 19 70 -44z"/>
<path d="M1338 1635 c-9 -20 -9 -28 1 -38 17 -17 46 4 46 34 0 34 -32 37 -47
4z"/>
<path d="M215 696 c-22 -16 -14 -46 13 -46 18 0 42 18 42 32 0 4 -7 4 -17 1
-10 -4 -14 -2 -9 5 10 17 -9 23 -29 8z"/>
<path d="M770 1445 c-69 -20 -152 -69 -195 -116 -84 -93 -115 -188 -115 -353
0 -270 101 -432 309 -496 84 -26 212 -26 315 0 l76 19 68 -43 c67 -44 364
-196 381 -196 9 0 61 85 61 99 0 4 -33 22 -73 39 -60 27 -311 163 -326 178 -3
2 9 19 27 37 43 44 79 128 92 215 7 41 10 76 7 78 -3 3 -41 6 -86 7 l-81 2 0
-26 c0 -47 -38 -153 -68 -188 l-29 -35 -34 26 c-41 31 -149 92 -153 87 -2 -2
-13 -23 -25 -46 l-20 -41 31 -11 c17 -6 52 -23 76 -37 41 -24 43 -28 26 -37
-10 -6 -55 -11 -99 -11 -211 -1 -314 138 -303 405 5 130 29 190 99 253 114
103 290 103 397 0 l46 -44 88 0 c58 0 88 4 88 11 0 23 -74 112 -126 150 -85
65 -140 82 -279 85 -86 3 -136 0 -175 -11z m272 -26 c78 -16 147 -54 202 -111
56 -58 50 -70 -25 -59 -33 5 -60 19 -89 44 -60 51 -124 70 -218 65 -126 -7
-221 -68 -277 -178 -42 -84 -51 -242 -20 -365 42 -165 143 -247 312 -251 76
-2 133 20 133 51 0 17 -31 51 -70 76 -14 9 -22 20 -18 25 5 4 41 -10 82 -31
65 -34 77 -38 100 -27 35 16 73 77 92 148 8 32 19 63 23 67 5 5 26 7 47 5 36
-3 39 -6 42 -34 4 -42 -27 -128 -72 -197 -31 -49 -34 -60 -24 -81 12 -28 77
-70 233 -150 61 -32 114 -61 118 -65 5 -5 4 -18 -2 -30 -10 -17 -15 -19 -39
-10 -57 22 -263 129 -322 168 -68 45 -91 49 -182 27 -122 -28 -272 -15 -367
34 -145 73 -221 251 -207 480 7 118 22 171 69 239 56 82 144 141 242 161 60
12 177 11 237 -1z"/>
<path d="M865 1148 c4 -13 8 -24 10 -25 4 -5 967 -4 972 1 3 2 2 13 -1 23 -5
17 -32 18 -497 21 l-491 4 7 -24z"/>
<path d="M869 1093 c-1 -2 -2 -13 -2 -25 l-1 -23 307 -1 308 -2 -3 24 -3 24
-303 3 c-166 1 -303 1 -303 0z"/>
<path d="M1608 958 c-4 -128 -8 -151 -35 -223 -30 -82 -69 -152 -105 -192
l-20 -21 109 -56 c59 -31 113 -54 118 -52 14 5 93 145 121 214 13 32 31 85 40
118 17 62 31 285 20 329 l-6 25 -119 0 -119 0 -4 -142z m213 85 c19 -51 4
-210 -31 -325 -6 -21 -11 -41 -11 -45 -1 -20 -103 -205 -116 -210 -20 -8 -143
55 -143 73 0 8 13 38 29 67 65 114 101 256 101 393 0 33 3 64 7 67 3 4 39 7
80 7 71 0 74 -1 84 -27z"/>
<path d="M860 995 l0 -25 260 0 260 0 0 25 0 25 -260 0 -260 0 0 -25z"/>
</g>
</svg>
